HIERARCHY
ROOT hip
{
  OFFSET 0 0 0
  CHANNELS 6 Xposition Yposition Zposition Zrotation Yrotation Xrotation
  JOINT abdomen
  {
    OFFSET 0 20.6881 -0.73152
    CHANNELS 3 Zrotation Xrotation Yrotation
    JOINT chest
    {
      OFFSET 0 11.7043 -0.48768
      CHANNELS 3 Zrotation Xrotation Yrotation
      JOINT neck
      {
        OFFSET 0 22.1894 -2.19456
        CHANNELS 3 Zrotation Xrotation Yrotation
        JOINT head
        {
          OFFSET -0.24384 7.07133 1.2192
          CHANNELS 3 Zrotation Xrotation Yrotation
          JOINT leftEye
          {
            OFFSET 4.14528 8.04674 8.04672
            CHANNELS 3 Zrotation Xrotation Yrotation
            End Site
            {
              OFFSET 1 0 0
            }
          }
          JOINT rightEye
          {
            OFFSET -3.6576 8.04674 8.04672
            CHANNELS 3 Zrotation Xrotation Yrotation
            End Site
            {
              OFFSET 1 0 0
            }
          }
        }
      }
      JOINT rCollar
      {
        OFFSET -2.68224 19.2634 -4.8768
        CHANNELS 3 Zrotation Xrotation Yrotation
        JOINT rShldr
        {
          OFFSET -8.77824 -1.95073 1.46304
          CHANNELS 3 Zrotation Xrotation Yrotation
          JOINT rForeArm
          {
            OFFSET -28.1742 -1.7115 0.48768
            CHANNELS 3 Zrotation Xrotation Yrotation
            JOINT rHand
            {
              OFFSET -22.5879 0.773209 7.07136
              CHANNELS 3 Zrotation Xrotation Yrotation
              JOINT rThumb1
              {
                OFFSET -1.2192 -0.487915 3.41376
                CHANNELS 3 Zrotation Xrotation Yrotation
                JOINT rThumb2
                {
                  OFFSET -3.37035 -0.52449 3.41376
                  CHANNELS 3 Zrotation Xrotation Yrotation
                  End Site
                  {
                    OFFSET -1.78271 -1.18214 1.43049
                  }
                }
              }
              JOINT rIndex1
              {
                OFFSET -7.75947 0.938293 5.60832
                CHANNELS 3 Zrotation Xrotation Yrotation
                JOINT rIndex2
                {
                  OFFSET -2.54057 -0.884171 1.56538
                  CHANNELS 3 Zrotation Xrotation Yrotation
                  End Site
                  {
                    OFFSET -1.62519 -0.234802 1.16502
                  }
                }
              }
              JOINT rMid1
              {
                OFFSET -8.24714 1.18213 3.41376
                CHANNELS 3 Zrotation Xrotation Yrotation
                JOINT rMid2
                {
                  OFFSET -3.10165 -0.590103 1.0647
                  CHANNELS 3 Zrotation Xrotation Yrotation
                  End Site
                  {
                    OFFSET -2.48547 -0.328903 0.83742
                  }
                }
              }
              JOINT rRing1
              {
                OFFSET -8.82822 0.546677 1.51678
                CHANNELS 3 Zrotation Xrotation Yrotation
                JOINT rRing2
                {
                  OFFSET -2.60934 -0.819778 -0.0198488
                  CHANNELS 3 Zrotation Xrotation Yrotation
                  End Site
                  {
                    OFFSET -2.33842 -0.294052 0.168128
                  }
                }
              }
              JOINT rPinky1
              {
                OFFSET -8.27202 -0.0477905 -0.4584
                CHANNELS 3 Zrotation Xrotation Yrotation
                JOINT rPinky2
                {
                  OFFSET -1.82734 -0.647385 -0.700984
                  CHANNELS 3 Zrotation Xrotation Yrotation
                  End Site
                  {
                    OFFSET -1.69225 -0.51767 -0.607171
                  }
                }
              }
            }
          }
        }
      }
      JOINT lCollar
      {
        OFFSET 2.68224 19.2634 -4.8768
        CHANNELS 3 Zrotation Xrotation Yrotation
        JOINT lShldr
        {
          OFFSET 8.77824 -1.95073 1.46304
          CHANNELS 3 Zrotation Xrotation Yrotation
          JOINT lForeArm
          {
            OFFSET 28.1742 -1.7115 0.48768
            CHANNELS 3 Zrotation Xrotation Yrotation
            JOINT lHand
            {
              OFFSET 22.5879 0.773209 7.07136
              CHANNELS 3 Zrotation Xrotation Yrotation
              JOINT lThumb1
              {
                OFFSET 1.2192 -0.487915 3.41376
                CHANNELS 3 Zrotation Xrotation Yrotation
                JOINT lThumb2
                {
                  OFFSET 3.37035 -0.52449 3.41376
                  CHANNELS 3 Zrotation Xrotation Yrotation
                  End Site
                  {
                    OFFSET 1.78271 -1.18214 1.43049
                  }
                }
              }
              JOINT lIndex1
              {
                OFFSET 7.75947 0.938293 5.60832
                CHANNELS 3 Zrotation Xrotation Yrotation
                JOINT lIndex2
                {
                  OFFSET 2.54057 -0.884171 1.56538
                  CHANNELS 3 Zrotation Xrotation Yrotation
                  End Site
                  {
                    OFFSET 1.62519 -0.234802 1.16502
                  }
                }
              }
              JOINT lMid1
              {
                OFFSET 8.24714 1.18213 3.41376
                CHANNELS 3 Zrotation Xrotation Yrotation
                JOINT lMid2
                {
                  OFFSET 3.10165 -0.590103 1.0647
                  CHANNELS 3 Zrotation Xrotation Yrotation
                  End Site
                  {
                    OFFSET 2.48547 -0.328903 0.83742
                  }
                }
              }
              JOINT lRing1
              {
                OFFSET 8.82822 0.546677 1.51678
                CHANNELS 3 Zrotation Xrotation Yrotation
                JOINT lRing2
                {
                  OFFSET 2.60934 -0.819778 -0.0198488
                  CHANNELS 3 Zrotation Xrotation Yrotation
                  End Site
                  {
                    OFFSET 2.33842 -0.294052 0.168128
                  }
                }
              }
              JOINT lPinky1
              {
                OFFSET 8.27202 -0.0477905 -0.4584
                CHANNELS 3 Zrotation Xrotation Yrotation
                JOINT lPinky2
                {
                  OFFSET 1.82734 -0.647385 -0.700984
                  CHANNELS 3 Zrotation Xrotation Yrotation
                  End Site
                  {
                    OFFSET 1.69225 -0.51767 -0.607171
                  }
                }
              }
            }
          }
        }
      }
    }
  }
  JOINT rButtock
  {
    OFFSET -8.77824 4.35084 1.2192
    CHANNELS 3 Zrotation Xrotation Yrotation
    JOINT rThigh
    {
      OFFSET 0 -1.70687 -2.19456
      CHANNELS 3 Zrotation Xrotation Yrotation
      JOINT rShin
      {
        OFFSET 0 -36.8199 0.73152
        CHANNELS 3 Zrotation Xrotation Yrotation
        JOINT rFoot
        {
          OFFSET 0.73152 -45.1104 -5.12064
          CHANNELS 3 Zrotation Xrotation Yrotation
          End Site
          {
            OFFSET -1.1221 -3.69964 12.103
          }
        }
      }
    }
  }
  JOINT lButtock
  {
    OFFSET 8.77824 4.35084 1.2192
    CHANNELS 3 Zrotation Xrotation Yrotation
    JOINT lThigh
    {
      OFFSET 0 -1.70687 -2.19456
      CHANNELS 3 Zrotation Xrotation Yrotation
      JOINT lShin
      {
        OFFSET 0 -36.8199 0.73152
        CHANNELS 3 Zrotation Xrotation Yrotation
        JOINT lFoot
        {
          OFFSET -0.73152 -45.1104 -5.12064
          CHANNELS 3 Zrotation Xrotation Yrotation
          End Site
          {
            OFFSET 1.1221 -3.69964 12.103
          }
        }
      }
    }
  }
}
MOTION
Frames:	4
Frame Time:	0.03333
-29.655694402754307 63.75976800918579 -47.057910449802876 -21.033710983026836 -43.995516066856574 9.723594759987199 4.517770143010166 12.694172096072682 14.494624475440029 -0.661725482098643 -13.002374990859398 4.377925861735563 -0.39860642486735914 12.958398817888272 7.292869599484 7.272492583868913 -22.278127053573556 17.33950584022977 0.8227488993289861 1.6092106044232812 -0.1177403883980533 1.0409470830495655 -0.6807334183111124 -0.11628551808420091 -0.47023696657081004 0.35304770240162536 0.9432782594044392 51.709613677739014 80.81475727845584 17.93789529832 -26.484463195432767 -45.198722191046016 92.7504513813506 -43.16850993196226 -80.47972966947755 -50.97600696465004 0.42634019454878436 1.1551220193193796 0.9568230581371034 0.25774529918007055 -0.3038219954448146 -0.10980911136885367 0.833612528647303 -1.3989081193832367 -0.08103888716130547 9.148585039425921 5.541289784949032 0.04021828826715071 -1.5771677324275184 0.2874348508416466 -0.04464454433400987 3.5400426505880036 0.8393529824795813 0.7543947139930257 -0.6875288695658933 1.5468737090243962 -0.35094664549947957 9.430571106857188 0.7699123701787658 -0.12305722375944543 -0.10745792546878256 0.48358881245942137 -0.7355114820937618 3.384897464912103 -0.939402127050457 -0.09487015363271352 -0.345440179007127 -0.336671016525624 0.3040482187806448 -64.39849323097859 15.757162745402084 -42.753316392695524 31.28649428575464 -37.2965040949485 -79.61553998474169 -1.0721752415433927 17.64765494727677 -1.0222924490440854 0.7171558289470286 -1.6636097527895535 0.6150763572845137 0.5467977309162466 0.10331338802475998 0.42657252770227055 0.2508008110631659 -0.3923605370364998 -0.2497905300353858 -8.464755891234352 3.4196550169378286 -1.7041232332948957 0.6230286184691126 -1.3611970441500094 -0.1413380649904259 -4.370236349390598 0.5876935952934037 0.02956828912338188 0.24176116241835977 -0.6173416322114308 1.1686229554309675 -11.050471704383481 0.8978460822013359 -0.5463964573025083 0.9452839871428959 0.3066066048724906 0.21087429993962165 -1.9608096397102028 0.13779831945306678 0.3849606674010257 1.474528452057327 0.09133003456938417 -1.264092244719938 -22.979491858685485 -25.735567103886716 -35.43173950812996 -6.061622987430712 75.26251016253083 9.069055170503939 -8.709050413504553 -18.39620269917515 -19.2631739784505 0.08412733328534128 0.5967945021973283 0.30937288484719866 76.36488903419254 -50.09151454260631 72.11046665302915 3.1294962012778162 76.32459091808947 -4.122833664161219 0.34584075892977767 8.064137975656424 9.919001349499386
-29.265915602445602 63.92567753791809 -48.29569552093744 -21.25323667804563 -45.122941242204725 9.40112957643985 4.3522942962146205 12.576314620623172 14.520065222551034 -0.7182068776664172 -13.07983445868922 4.321763777511487 -0.4494539815869306 13.250168277531937 7.451277908035874 7.512861454913648 -21.94558051081127 17.938682477621843 0.6137570635576435 1.5907037799803085 0.18002885882293992 0.904014916960621 -0.595644202291563 -0.07042250535485779 -0.2809361126093646 0.5142768524002886 0.7335122643793579 51.694997072915186 81.1115768092171 17.868625227305024 -26.367492790801712 -45.634324335552755 93.0925618964982 -43.09695345512262 -81.230128402641 -51.17135379000699 0.4289127212666462 0.9631522956201781 0.8237354881380827 0.40974240797883027 -0.1234603916834613 -0.11077643691005673 0.736335693827512 -1.4565285557168162 -0.1701754171509106 9.080564893029056 5.594407312350575 -0.04856093745149816 -1.7625330900861407 0.25133175154942855 0.1015330298484874 3.6198423119822016 0.8872131852109185 0.5034428917161791 -0.668368054509892 1.7070698195915215 -0.5717662344791686 9.560451422793212 0.7424153092407638 -0.042898123660175785 -0.034146516899273824 0.5770663545533927 -0.9536715661653773 3.3186958563817543 -0.9373443191195792 -0.15970871253682142 -0.1358319186631907 -0.3926512469630485 0.2883799782680471 -64.96732504543559 14.23272770190506 -41.91995135168393 31.08655757327544 -36.90290761383735 -79.17591485881383 -0.8234453651809158 18.24285812211919 -1.5246166838402635 0.614532236667587 -1.661197201908658 0.4661936013038683 0.4755891668374555 0.13656808498967113 0.2484999978082236 0.15696681847188443 -0.24341246737191613 -0.07072602188610023 -8.602939155880174 3.815256585457205 -1.6689802024678877 0.7421826559221603 -1.1838725266917847 -0.3957284606275508 -4.339310960376073 0.5491717552613549 -0.20443228429396246 0.552273514918187 -0.601829205389274 1.0857522702312028 -11.10330748648176 0.8794198326462281 -0.3286564298648487 0.9589584527480844 0.20849904829489682 0.26877253287335034 -1.860438302309573 -0.037281200202339444 0.19353074208966675 1.420847860936081 0.0047304929696156284 -0.9470546069635158 -22.97057846181862 -25.638981398833568 -35.631269824353545 -6.522080617213946 75.525499766333 9.450578438483449 -9.10667755999966 -19.04786763279148 -20.032096184643024 0.1448669249137953 0.7419402909283306 0.3556944807462847 77.56112836542857 -49.98273353479011 73.55585762480891 3.40941528271151 76.70531932280431 -4.220345713620553 0.29893123315354164 7.2655727484660435 8.864112783136767
-29.443742148578167 64.12301063537598 -49.667743034660816 -19.343891446514416 -46.219350528531855 10.96247496221162 3.9664364194330903 12.602988216879366 14.733004907662645 -0.935180643256566 -13.079228279400382 4.392434891079962 -0.4403116666611628 13.47990083649167 7.65529907363874 7.819532679778989 -21.969383720068762 18.540562162377952 0.3798207099267531 1.75753798064704 0.5059109378840809 1.0091651456244384 -0.2830661444546301 -0.07466576037672822 -0.05190236737908888 0.7305923585091775 0.7466497063610543 52.63431883852119 81.63449609207326 16.60300312693271 -26.4892392052099 -45.69012698107176 92.90010765625475 -42.77398454512398 -81.07015854209014 -50.70954079456033 0.39947727398653576 0.732134220353455 0.3665315897207148 0.391864814713145 -0.23284736534509645 -0.32862105161938215 0.5078210429741572 -1.1671365355128436 -0.12915372788263715 8.954507775480947 5.570147761079159 -0.29201961532201764 -1.5262119598982846 0.19431546679227776 0.22749495163503944 4.020957550709071 0.9838037994625347 0.13012888412900195 -0.5145261543049942 1.5584374327326393 -0.6802940984092631 10.045025169875291 0.7006960869035028 -0.12914548363086556 -0.09957017755532854 0.7622003395538809 -0.9662946095252071 3.2354034070007414 -0.7263409926376677 -0.13237984500713104 -0.03066066582333435 -0.6481383148487836 0.23887113862579812 -65.44255594750673 13.088420860249572 -42.279345660526246 30.311074970385118 -36.50916769875362 -78.12996701007475 -0.37405090762538484 20.3434401126743 -2.5194202895176923 0.5659964855386532 -1.6798491678714935 0.4649838040471298 0.3763437434328199 0.29003773988480325 0.5043735049905933 0.046890422590901135 -0.27890810671482613 -0.04836398254347849 -8.374747658351925 4.141700354196087 -1.2678816123271202 0.7084453634037053 -1.0091217098901852 -0.7123474291321925 -4.142131083000621 0.20085473259233028 -0.15229339493443544 0.8513184066883859 -0.5909762482415353 1.0922006091379297 -11.153892721248521 0.923463026848586 -0.10847674423302517 0.8611104433589511 0.15295808439846875 0.14966812101349114 -1.6804771183883116 -0.3139480443740494 0.12201332539434419 1.5809188936640306 -0.06556154509992435 -0.9220340232081724 -23.306806476543542 -25.119250106772494 -35.203911718175014 -6.824108594104147 75.92671873855788 9.432903616458749 -9.212997138393726 -19.556359848573297 -20.691071128218564 0.2254287927306841 0.6085315419557605 0.38397882770783637 78.63563323508747 -50.01290248035405 73.83081372003694 3.010759765859491 76.99965949489685 -3.5063555172712664 0.11546424119735978 6.800594814112732 8.451387503481346
-30.245938524603844 63.96942138671875 -51.20569337159395 -16.97410608755972 -45.81172825396008 12.375618903372457 3.2707842137882306 12.717765277013198 14.828436310746062 -0.9399182332196161 -13.095373139051 4.585462867213693 -0.5971510594163442 13.6486824948455 7.72386478139556 7.949293467404538 -22.31897670745211 18.35679592275876 0.1774076269866021 1.8874271544846435 0.6056321266530902 1.2567283402993124 0.10806036949791885 0.021096053107789305 0.16921332097329086 0.753628879032338 0.9059664300725405 53.13779257281034 81.39610882966149 16.337260956895022 -26.581586777883054 -45.26853355455272 92.16447579207687 -41.938508975658856 -79.46290574735941 -49.35859426352893 0.4471294761133049 0.7014865212173731 0.02463195666374028 0.312958413996338 -0.38184943619280554 -0.517802350589926 0.37770764683270686 -0.8547417188447374 -0.15080969641980885 8.798488325591284 5.4619298169826545 -0.5286280403418375 -1.2690459461371957 0.14914443760322155 0.1881206186172084 4.331350374898423 1.0990980329825846 0.012918355659940308 -0.5072949049646547 1.3624714080387457 -0.6838496387590779 10.444078972133287 0.5764389376451037 -0.37187760012842497 -0.22062642269222468 0.8230436646803545 -0.9466424477357879 3.1556515569307337 -0.5701324318853604 -0.1945194119720261 -0.05126222390738531 -0.7644594246218626 0.20588772823698342 -65.46075840164481 13.323355462035916 -42.80676603804546 29.74485228819106 -36.61531566864479 -77.68226177035875 -0.025405182102553325 21.04960654077275 -2.815682306087934 0.5988518298805302 -1.5068105941174517 0.5443617012600792 0.3411070109481357 0.3422338320786291 0.7953066933477558 -0.13061253355939023 -0.5094914511130485 -0.14766767599947075 -8.107017903265765 4.267273382086771 -0.8453191527195875 0.4887272491493866 -0.9356006998905217 -0.805545573800428 -4.020406866707239 -0.05695758781897102 0.13113106764735585 0.9765874911610047 -0.6510475485483859 1.295522747567927 -11.089778589283258 0.9882235721857677 0.02992508646623571 0.8083088122065213 0.05564453731188896 -0.13820001995362816 -1.6168697010820985 -0.5036695686192588 0.0020403055711297464 1.75095261107009 0.02570856523166354 -1.1098585691331166 -23.75615779184951 -25.30893299776021 -34.635073073528844 -7.060791724318014 76.56639327508626 9.511071716414959 -8.781552871544237 -19.350115456395592 -20.37552151120585 0.40013094443444713 0.5463776742822908 0.45471087937031324 77.88854031348231 -49.9584317217232 72.4553433947906 2.582195704405633 76.80803853773214 -2.8251022041704394 0.20687991993563357 6.737280668054006 9.44408890499829
